M48
INCH
T01C0.0150
T02C0.0300
T03C0.0400
T04C0.0500
T05C0.0600
%
T01
X+030500Y+013500
X+033500Y+013500
X+031000Y+015000
X+034000Y+015000
X+013500Y+008000
X+015000Y+001500
T02
X+002952Y+038448
X+002952Y+034448
X+005905Y+038385
X+005905Y+034385
X+005671Y+031496
X+004921Y+030746
X+004171Y+031496
X+004234Y+032480
X+004984Y+033230
X+005734Y+032480
X+000984Y+031433
X+000984Y+027433
X+004171Y+027559
X+004921Y+028309
X+005671Y+027559
X+005671Y+026574
X+004921Y+025824
X+004171Y+026574
X+001968Y+026574
X+001968Y+022574
X+007874Y+027559
X+011874Y+027559
X+010751Y+016389
X+014751Y+016389
X+005299Y+008358
X+009299Y+008358
X+009889Y+010326
X+005889Y+010326
X+006968Y+014482
X+006218Y+015232
X+006968Y+015982
X+010889Y+013279
X+009889Y+013279
X+006842Y+026574
X+010842Y+026574
X+014763Y+019622
X+014763Y+023622
X+010826Y+031433
X+009826Y+031433
X+016527Y+035283
X+012527Y+035283
X+017795Y+026433
X+017795Y+022433
X+023606Y+035917
X+023606Y+031917
X+012202Y+002997
X+012202Y+001997
X+012197Y+005118
X+012197Y+004118
X+026000Y+026500
X+025000Y+026500
X+024000Y+026500
X+024000Y+023500
X+025000Y+023500
X+026000Y+023500
X+027000Y+023500
X+034500Y+013500
X+034500Y+014500
X+034500Y+012000
X+030500Y+012000
X+022500Y+017500
X+026500Y+017500
X+031000Y+024500
X+030000Y+024500
X+026500Y+015500
X+022500Y+015500
X+021500Y+014000
X+025500Y+014000
X+025500Y+012500
X+021500Y+012500
X+028500Y+028500
X+028500Y+032500
X+031500Y+032500
X+031500Y+028500
X+031500Y+003500
X+027500Y+003500
X+031500Y+004500
X+027500Y+004500
X+031500Y+007500
X+027500Y+007500
X+016500Y+006500
X+016500Y+002500
X+020750Y+007500
X+020000Y+006750
X+019250Y+007500
X+020000Y+003250
X+019250Y+004000
X+020000Y+004750
X+023000Y+003250
X+022250Y+004000
X+023000Y+004750
X+024000Y+004750
X+024750Y+004000
X+024000Y+003250
X+034000Y+007500
X+034000Y+003500
X+035500Y+002000
X+035500Y+001000
X+032500Y+005000
X+032500Y+001000
X+035500Y+005000
X+035500Y+004000
X+014500Y+011500
X+014500Y+012287
X+016500Y+038287
X+016500Y+037500
X+008000Y+023500
X+011000Y+023500
X+036000Y+038000
X+036000Y+026000
X+010500Y+021500
X+008500Y+021500
X+009500Y+021500
T03
X+004984Y+019216
X+005884Y+019216
X+006784Y+019216
X+013320Y+029066
X+014220Y+029066
X+015120Y+029066
X+017853Y+028948
X+018753Y+028948
X+019653Y+028948
X+025118Y+032897
X+026118Y+032897
X+027118Y+032897
X+010028Y+002268
X+010028Y+003268
X+010028Y+004268
X+027000Y+026500
X+000500Y+002500
X+000500Y+003500
X+020250Y+037250
X+021250Y+037250
X+027750Y+037750
X+028750Y+037750
X+029750Y+037750
T04
X+036937Y+007559
X+036937Y+003622
X+036937Y+005590
X+036937Y+016716
X+036937Y+012779
X+036937Y+014748
T05
X+036000Y+023500
X+036000Y+021500
M30
